#N canvas 685 179 2880 1757 12;
#X declare -lib ultraleap;
#X obj 55 83 metro 50;
#X obj 35 173 ultraleap;
#X obj 35 33 r \$0-ultraleap;
#X obj 140 33 declare -lib ultraleap;
#X obj 55 60 loadbang;
#X msg 338 32 general \$1;
#X msg 341 142 finger_count \$1;
#X msg 339 95 palm_position \$1;
#X msg 341 120 palm_velocity \$1;
#X msg 339 75 palm_normal \$1;
#X msg 339 55 palm_direction \$1;
#X obj 331 249 s \$0-ultraleap;
#X msg 341 226 pinch_distance \$1;
#X msg 341 206 pinch_strength \$1;
#X msg 341 186 grab_angle \$1;
#X msg 341 166 grab_strength \$1;
#X obj 312 32 tgl 19 0 empty empty empty 0 -10 0 12 #fcfcfc #000000 #000000 0 1;
#X obj 41 229 route 0;
#X msg 119 84 1;
#X obj 46 314 line;
#X obj 105 314 line;
#X obj 235 315 unpack 0 0 0;
#X obj 222 370 line;
#X obj 280 372 line;
#X obj 339 372 line;
#X obj 339 421 * -1;
#X obj 339 396 clip -200 0;
#X msg 222 345 \$1 50;
#X msg 280 348 \$1 50;
#X msg 339 346 \$1 50;
#X msg 105 286 \$1 50;
#X msg 46 286 \$1 50;
#X obj 41 257 route grab_strength pinch_strength palm;
#X obj 35 198 unpack 0 0 0 0;
#X floatatom 130 224 5 0 0 0 - - - 0;
#X obj 102 391 pipe 10;
#X floatatom 102 443 5 0 0 0 - - - 0;
#X obj 102 419 spigot;
#X obj 663 508 outputstage;
#X obj 1749 138 soundfiler;
#X obj 1750 211 soundfiler;
#X obj 1749 281 soundfiler;
#X obj 1750 354 soundfiler;
#X obj 1799 50 loadbang;
#X obj 722 879 *~;
#X obj 777 882 *~;
#X obj 723 910 outputstage;
#X obj 710 1056 rev3~, f 22;
#X obj 706 1023 *~;
#X obj 747 1026 *~;
#X obj 751 1161 *~;
#X obj 783 1162 *~;
#X obj 820 14 line~;
#X msg 820 -19 \$1 100;
#X obj 229 670 line~;
#X msg 227 635 \$1 100;
#X obj 678 763 sig~ 5;
#X obj 228 701 *~ 20;
#X obj 222 606 / 200;
#X obj 338 620 /~ -200;
#X obj 849 819 sel 1 0;
#X obj 838 880 line~;
#X obj 749 952 *~;
#X obj 786 953 *~;
#X obj 810 72 expr~ $v1 > 0.5;
#X obj 782 996 loadbang;
#X obj 928 74 expr~ $v1 > 0.7;
#X obj 1048 73 expr~ $v1 > 0.8;
#X obj 787 609 sig~ 1;
#X obj 807 695 -~;
#X obj 859 412 phasor~ 10;
#X obj 722 842 *~;
#X obj 876 695 -~;
#X obj 776 842 *~;
#X obj 888 655 *~;
#X obj 852 657 *~;
#X obj 898 606 line~;
#X msg 897 578 \$1 100;
#X obj 1011 518 line~;
#X msg 1011 490 \$1 100;
#X obj 879 724 clip~ 0 1;
#X obj 803 725 clip~ 0 1;
#X msg 784 1024 98;
#X obj 1340 809 comport;
#X msg 1210 724 devices;
#X obj 232 287 route position normal;
#X obj 383 318 unpack 0 0 0;
#X obj 1199 593 + 1;
#X obj 1446 711 makefilename %d;
#X obj 1446 741 list fromsymbol;
#X obj 1445 805 list trim;
#X obj 1433 642 int;
#X msg 1274 726 close;
#X obj 1434 557 snapshot~;
#X obj 1469 488 tgl 19 0 empty empty empty 0 -10 0 12 #fcfcfc #000000 #000000 0 1;
#X floatatom 1437 587 5 0 0 0 - - - 0;
#X obj 1433 491 *~;
#X obj 1457 426 *~ 1;
#X obj 1434 525 *~;
#X obj 1470 463 loadbang;
#X obj 852 449 expr~ $v1 > 0.5;
#X obj 640 1322 scope;
#X obj 919 959 osc~ 440;
#X obj 750 1236 dac~ 1 2;
#X msg 1750 322 read -resize newd.WAV dl dr;
#X msg 1749 249 read -resize newc.WAV cl cr;
#X msg 1750 179 read -resize newb.WAV bl br;
#X obj 483 60 array define al;
#X obj 482 90 array define ar;
#X obj 483 126 array define bl;
#X obj 482 156 array define br;
#X obj 482 183 array define cl;
#X obj 481 213 array define cr;
#X obj 482 244 array define dl;
#X obj 486 272 array define dr;
#X obj 673 194 tabplay~ al ar;
#X obj 664 259 snake~ out 2;
#X obj 679 146 bng 19 250 50 0 empty empty empty 0 -10 0 12 #fcfcfc #000000 #000000;
#X msg 1749 106 read -resize newa.WAV al ar;
#X floatatom 1098 599 5 0 0 0 - - - 0;
#X obj 1041 802 scope;
#X obj 748 1205 *~ 1;
#X obj 802 1206 *~ 1;
#X obj 814 230 *~;
#X obj 776 261 snake~ out 2;
#X obj 791 148 bng 19 250 50 0 empty empty empty 0 -10 0 12 #fcfcfc #000000 #000000;
#X obj 804 749 lop~ 1000;
#X obj 884 753 lop~ 1000;
#X obj 1010 463 * 5;
#X obj 950 232 *~;
#X obj 912 263 snake~ out 2;
#X obj 927 150 bng 19 250 50 0 empty empty empty 0 -10 0 12 #fcfcfc #000000 #000000;
#X obj 917 352 *~ 2;
#X obj 975 354 *~ 2;
#X obj 785 196 tabplay~ bl br;
#X obj 921 198 tabplay~ cl cr;
#X obj 1082 225 *~;
#X obj 1044 256 snake~ out 2;
#X obj 1059 143 bng 19 250 50 0 empty empty empty 0 -10 0 12 #fcfcfc #000000 #000000;
#X obj 1053 191 tabplay~ dl dr;
#X obj 253 402 clip 0 500;
#X obj 287 619 / 500;
#X obj 742 1116 *~ 0.5;
#X obj 801 1115 *~ 0.5;
#X obj 666 350 *~ 4;
#X obj 724 352 *~ 4;
#X obj 781 350 *~ 3;
#X obj 839 352 *~ 3;
#X obj 935 116 lop~ 0.1;
#X obj 817 114 lop~ 0.1;
#X obj 1055 115 lop~ 0.1;
#X obj 1465 521 metro 20;
#X floatatom 1504 677 5 0 0 0 - - - 0;
#X obj 1438 674 change;
#X obj 1448 774 list append 32;
#X msg 1323 726 open 12 115200;
#X obj 1436 615 * 255;
#X obj 1198 615 clip 0.1 2;
#X obj 1202 651 - 0.1;
#X floatatom 1101 679 5 0 0 0 - - - 0;
#X msg 839 852 1 50;
#X obj 553 515 change;
#X msg 881 851 0 3000;
#X obj 821 923 pow~ 4;
#X obj 1049 345 *~ 3;
#X obj 1107 347 *~ 3;
#X connect 0 0 1 0;
#X connect 1 0 33 0;
#X connect 1 1 17 0;
#X connect 2 0 1 0;
#X connect 4 0 0 0;
#X connect 4 0 18 0;
#X connect 5 0 11 0;
#X connect 6 0 11 0;
#X connect 7 0 11 0;
#X connect 8 0 11 0;
#X connect 9 0 11 0;
#X connect 10 0 11 0;
#X connect 12 0 11 0;
#X connect 13 0 11 0;
#X connect 14 0 11 0;
#X connect 15 0 11 0;
#X connect 16 0 5 0;
#X connect 16 0 10 0;
#X connect 16 0 15 0;
#X connect 16 0 14 0;
#X connect 16 0 13 0;
#X connect 16 0 12 0;
#X connect 16 0 9 0;
#X connect 16 0 8 0;
#X connect 16 0 7 0;
#X connect 16 0 6 0;
#X connect 17 0 32 0;
#X connect 18 0 16 0;
#X connect 20 0 35 0;
#X connect 21 0 27 0;
#X connect 21 1 28 0;
#X connect 21 2 29 0;
#X connect 22 0 58 0;
#X connect 23 0 140 0;
#X connect 24 0 26 0;
#X connect 25 0 59 0;
#X connect 26 0 25 0;
#X connect 27 0 22 0;
#X connect 28 0 23 0;
#X connect 29 0 24 0;
#X connect 30 0 20 0;
#X connect 31 0 19 0;
#X connect 32 0 31 0;
#X connect 32 1 30 0;
#X connect 32 2 85 0;
#X connect 33 3 34 0;
#X connect 34 0 37 1;
#X connect 34 0 161 0;
#X connect 35 0 37 0;
#X connect 37 0 36 0;
#X connect 38 0 71 0;
#X connect 38 1 73 0;
#X connect 43 0 118 0;
#X connect 43 0 104 0;
#X connect 43 0 105 0;
#X connect 43 0 106 0;
#X connect 44 0 46 0;
#X connect 45 0 46 1;
#X connect 46 0 48 0;
#X connect 46 0 62 0;
#X connect 46 1 49 0;
#X connect 46 1 63 0;
#X connect 47 0 142 0;
#X connect 47 1 143 0;
#X connect 47 2 142 0;
#X connect 47 3 143 0;
#X connect 48 0 47 0;
#X connect 49 0 47 1;
#X connect 50 0 101 0;
#X connect 50 0 121 0;
#X connect 51 0 122 0;
#X connect 52 0 50 1;
#X connect 52 0 51 1;
#X connect 52 0 64 0;
#X connect 52 0 66 0;
#X connect 52 0 67 0;
#X connect 52 0 97 0;
#X connect 53 0 52 0;
#X connect 54 0 57 0;
#X connect 55 0 54 0;
#X connect 56 0 44 1;
#X connect 56 0 45 1;
#X connect 57 0 44 1;
#X connect 57 0 45 1;
#X connect 58 0 55 0;
#X connect 59 0 48 1;
#X connect 59 0 49 1;
#X connect 60 0 160 0;
#X connect 60 0 117 0;
#X connect 60 0 125 0;
#X connect 60 0 131 0;
#X connect 60 1 162 0;
#X connect 61 0 98 1;
#X connect 61 0 163 0;
#X connect 62 0 142 0;
#X connect 63 0 143 0;
#X connect 64 0 149 0;
#X connect 65 0 82 0;
#X connect 66 0 148 0;
#X connect 67 0 150 0;
#X connect 68 0 69 0;
#X connect 68 0 72 0;
#X connect 69 0 81 0;
#X connect 70 0 100 0;
#X connect 71 0 44 0;
#X connect 72 0 80 0;
#X connect 73 0 45 0;
#X connect 74 0 69 1;
#X connect 75 0 72 1;
#X connect 76 0 75 1;
#X connect 76 0 74 1;
#X connect 77 0 76 0;
#X connect 78 0 70 0;
#X connect 79 0 78 0;
#X connect 80 0 127 0;
#X connect 81 0 126 0;
#X connect 82 0 47 2;
#X connect 82 0 47 3;
#X connect 84 0 83 0;
#X connect 85 0 21 0;
#X connect 85 1 86 0;
#X connect 86 1 87 0;
#X connect 87 0 157 0;
#X connect 88 0 89 0;
#X connect 89 0 154 0;
#X connect 90 0 83 0;
#X connect 91 0 152 0;
#X connect 91 0 153 0;
#X connect 92 0 83 0;
#X connect 93 0 95 0;
#X connect 94 0 151 0;
#X connect 95 0 156 0;
#X connect 96 0 98 0;
#X connect 97 0 96 1;
#X connect 98 0 93 0;
#X connect 99 0 94 0;
#X connect 100 0 75 0;
#X connect 100 0 74 0;
#X connect 104 0 42 0;
#X connect 105 0 41 0;
#X connect 106 0 40 0;
#X connect 115 0 116 0;
#X connect 115 1 117 0;
#X connect 116 0 144 0;
#X connect 116 1 145 0;
#X connect 117 0 115 0;
#X connect 118 0 39 0;
#X connect 121 0 103 0;
#X connect 122 0 103 1;
#X connect 123 0 124 0;
#X connect 124 0 146 0;
#X connect 124 1 147 0;
#X connect 125 0 134 0;
#X connect 126 0 71 1;
#X connect 126 0 96 0;
#X connect 126 0 120 0;
#X connect 127 0 73 1;
#X connect 128 0 79 0;
#X connect 129 0 130 0;
#X connect 130 0 132 0;
#X connect 130 1 133 0;
#X connect 131 0 135 0;
#X connect 132 0 38 0;
#X connect 133 0 38 1;
#X connect 134 0 123 0;
#X connect 134 1 125 0;
#X connect 135 0 129 0;
#X connect 135 1 131 0;
#X connect 136 0 137 0;
#X connect 137 0 164 0;
#X connect 137 1 165 0;
#X connect 138 0 139 0;
#X connect 139 0 136 0;
#X connect 139 1 138 0;
#X connect 140 0 141 0;
#X connect 141 0 53 0;
#X connect 142 0 50 0;
#X connect 143 0 51 0;
#X connect 144 0 38 0;
#X connect 145 0 38 1;
#X connect 146 0 38 0;
#X connect 147 0 38 1;
#X connect 148 0 129 1;
#X connect 149 0 123 1;
#X connect 150 0 136 1;
#X connect 151 0 93 0;
#X connect 153 0 88 0;
#X connect 154 0 90 0;
#X connect 155 0 83 0;
#X connect 156 0 91 0;
#X connect 157 0 119 0;
#X connect 157 0 158 0;
#X connect 158 0 77 0;
#X connect 158 0 159 0;
#X connect 158 0 128 0;
#X connect 160 0 61 0;
#X connect 161 0 60 0;
#X connect 162 0 61 0;
#X connect 163 0 63 1;
#X connect 163 0 62 1;
#X connect 164 0 38 0;
#X connect 165 0 38 1;
